<svg width="61" height="59" viewBox="0 0 61 59" fill="none" xmlns="http://www.w3.org/2000/svg">
<path d="M55.2406 3L49.7218 8.5716M49.7218 8.5716L58 16.929L48.3421 26.6793L40.0639 18.3219M49.7218 8.5716L40.0639 18.3219M28.7228 29.7715C30.1476 31.1908 31.2802 32.8806 32.0555 34.7436C32.8308 36.6066 33.2333 38.606 33.24 40.6268C33.2467 42.6475 32.8574 44.6496 32.0946 46.5178C31.3317 48.386 30.2103 50.0834 28.795 51.5123C27.3796 52.9412 25.6983 54.0733 23.8478 54.8435C21.9973 55.6137 20.0142 56.0067 18.0126 55.9999C16.011 55.9931 14.0306 55.5867 12.1852 54.804C10.3399 54.0214 8.66609 52.8779 7.26027 51.4395C4.49572 48.5497 2.96599 44.6794 3.00057 40.662C3.03515 36.6447 4.63127 32.8018 7.44514 29.961C10.259 27.1202 14.0655 25.5088 18.0448 25.4739C22.0241 25.439 25.8577 26.9833 28.7201 29.7743L28.7228 29.7715ZM28.7228 29.7715L40.0639 18.3219" stroke="#D20022" stroke-width="5" stroke-linecap="round" stroke-linejoin="round"/>
</svg>
