<svg width="61" height="62" viewBox="0 0 61 62" fill="none" xmlns="http://www.w3.org/2000/svg">
<path d="M16.9717 28.1998L28.1491 3C30.3724 3 32.5046 3.88499 34.0767 5.46029C35.6489 7.03558 36.5321 9.17214 36.5321 11.3999V22.5999H52.348C53.1581 22.5907 53.9605 22.7581 54.6997 23.0905C55.4388 23.4229 56.097 23.9123 56.6286 24.5249C57.1602 25.1375 57.5525 25.8586 57.7784 26.6382C58.0043 27.4178 58.0583 28.2372 57.9367 29.0398L54.0805 54.2397C53.8784 55.575 53.2015 56.7922 52.1745 57.6669C51.1475 58.5416 49.8396 59.0149 48.4918 58.9996H16.9717M16.9717 28.1998V58.9996M16.9717 28.1998H8.58868C7.10647 28.1998 5.68497 28.7898 4.63689 29.84C3.58881 30.8902 3 32.3146 3 33.7998V53.3997C3 54.8849 3.58881 56.3093 4.63689 57.3594C5.68497 58.4096 7.10647 58.9996 8.58868 58.9996H16.9717" stroke="#D20022" stroke-width="5" stroke-linecap="round" stroke-linejoin="round"/>
</svg>
