<svg width="14" height="14" viewBox="0 0 14 14" fill="none" xmlns="http://www.w3.org/2000/svg">
<path d="M13 4.44033V1M13 1H9.55308M13 1L8.97859 5.01372M12.4255 10.1284V11.8486C12.4261 12.0083 12.3934 12.1663 12.3293 12.3126C12.2652 12.459 12.1711 12.5903 12.0533 12.6983C11.9354 12.8062 11.7962 12.8884 11.6446 12.9396C11.493 12.9907 11.3324 13.0097 11.1731 12.9953C9.4053 12.8036 7.70721 12.2007 6.21526 11.235C4.8272 10.3547 3.65037 9.18012 2.76834 7.79471C1.79744 6.29886 1.19323 4.59577 1.00466 2.82343C0.990307 2.66487 1.00919 2.50506 1.0601 2.35418C1.11102 2.20331 1.19285 2.06466 1.30039 1.94708C1.40793 1.82949 1.53882 1.73555 1.68474 1.67122C1.83065 1.60689 1.98838 1.57359 2.14789 1.57344H3.87136C4.15016 1.57071 4.42045 1.66925 4.63184 1.8507C4.84323 2.03215 4.98131 2.28413 5.02033 2.55967C5.09307 3.11016 5.22798 3.65067 5.42247 4.17089C5.49977 4.37612 5.51649 4.59917 5.47068 4.81359C5.42486 5.02802 5.31841 5.22485 5.16395 5.38074L4.43435 6.10895C5.25217 7.54445 6.44302 8.73303 7.88128 9.54928L8.61088 8.82108C8.76707 8.66691 8.96428 8.56067 9.17911 8.51494C9.39395 8.46921 9.61742 8.48591 9.82305 8.56305C10.3443 8.75717 10.8858 8.89182 11.4374 8.96442C11.7164 9.00372 11.9713 9.14401 12.1535 9.35862C12.3357 9.57324 12.4325 9.8472 12.4255 10.1284Z" stroke="white" stroke-width="0.573389" stroke-linecap="round" stroke-linejoin="round"/>
</svg>
