<svg width="61" height="61" viewBox="0 0 61 61" fill="none" xmlns="http://www.w3.org/2000/svg">
<path d="M30.5 38C34.6421 38 38 34.6421 38 30.5C38 26.3579 34.6421 23 30.5 23C26.3579 23 23 26.3579 23 30.5C23 34.6421 26.3579 38 30.5 38Z" stroke="#D20022" stroke-width="5" stroke-linecap="round" stroke-linejoin="round"/>
<path d="M49 38C48.6672 38.754 48.5679 39.5905 48.715 40.4015C48.862 41.2125 49.2487 41.9608 49.825 42.55L49.975 42.7C50.4399 43.1644 50.8087 43.7158 51.0603 44.3228C51.3119 44.9298 51.4414 45.5804 51.4414 46.2375C51.4414 46.8946 51.3119 47.5452 51.0603 48.1522C50.8087 48.7592 50.4399 49.3106 49.975 49.775C49.5106 50.2399 48.9592 50.6087 48.3522 50.8603C47.7452 51.1119 47.0946 51.2414 46.4375 51.2414C45.7804 51.2414 45.1298 51.1119 44.5228 50.8603C43.9158 50.6087 43.3644 50.2399 42.9 49.775L42.75 49.625C42.1608 49.0487 41.4125 48.662 40.6015 48.515C39.7905 48.3679 38.954 48.4672 38.2 48.8C37.4606 49.1169 36.83 49.6431 36.3858 50.3138C35.9416 50.9846 35.7032 51.7705 35.7 52.575V53C35.7 54.3261 35.1732 55.5979 34.2355 56.5355C33.2979 57.4732 32.0261 58 30.7 58C29.3739 58 28.1021 57.4732 27.1645 56.5355C26.2268 55.5979 25.7 54.3261 25.7 53V52.775C25.6806 51.9475 25.4128 51.145 24.9313 50.4718C24.4498 49.7985 23.7768 49.2857 23 49C22.246 48.6672 21.4095 48.5679 20.5985 48.715C19.7875 48.862 19.0392 49.2487 18.45 49.825L18.3 49.975C17.8356 50.4399 17.2842 50.8087 16.6772 51.0603C16.0702 51.3119 15.4196 51.4414 14.7625 51.4414C14.1054 51.4414 13.4548 51.3119 12.8478 51.0603C12.2408 50.8087 11.6894 50.4399 11.225 49.975C10.7601 49.5106 10.3913 48.9592 10.1397 48.3522C9.88808 47.7452 9.75857 47.0946 9.75857 46.4375C9.75857 45.7804 9.88808 45.1298 10.1397 44.5228C10.3913 43.9158 10.7601 43.3644 11.225 42.9L11.375 42.75C11.9513 42.1608 12.338 41.4125 12.485 40.6015C12.6321 39.7905 12.5328 38.954 12.2 38.2C11.8831 37.4606 11.3569 36.83 10.6862 36.3858C10.0154 35.9416 9.22947 35.7032 8.425 35.7H8C6.67392 35.7 5.40215 35.1732 4.46447 34.2355C3.52678 33.2979 3 32.0261 3 30.7C3 29.3739 3.52678 28.1021 4.46447 27.1645C5.40215 26.2268 6.67392 25.7 8 25.7H8.225C9.05249 25.6806 9.85501 25.4128 10.5282 24.9313C11.2015 24.4498 11.7143 23.7768 12 23C12.3328 22.246 12.4321 21.4095 12.285 20.5985C12.138 19.7875 11.7513 19.0392 11.175 18.45L11.025 18.3C10.5601 17.8356 10.1913 17.2842 9.9397 16.6772C9.68808 16.0702 9.55857 15.4196 9.55857 14.7625C9.55857 14.1054 9.68808 13.4548 9.9397 12.8478C10.1913 12.2408 10.5601 11.6894 11.025 11.225C11.4894 10.7601 12.0408 10.3913 12.6478 10.1397C13.2548 9.88808 13.9054 9.75857 14.5625 9.75857C15.2196 9.75857 15.8702 9.88808 16.4772 10.1397C17.0842 10.3913 17.6356 10.7601 18.1 11.225L18.25 11.375C18.8392 11.9513 19.5875 12.338 20.3985 12.485C21.2095 12.6321 22.046 12.5328 22.8 12.2H23C23.7394 11.8831 24.37 11.3569 24.8142 10.6862C25.2584 10.0154 25.4968 9.22947 25.5 8.425V8C25.5 6.67392 26.0268 5.40215 26.9645 4.46447C27.9021 3.52678 29.1739 3 30.5 3C31.8261 3 33.0979 3.52678 34.0355 4.46447C34.9732 5.40215 35.5 6.67392 35.5 8V8.225C35.5032 9.02947 35.7416 9.81544 36.1858 10.4862C36.63 11.1569 37.2606 11.6831 38 12C38.754 12.3328 39.5905 12.4321 40.4015 12.285C41.2125 12.138 41.9608 11.7513 42.55 11.175L42.7 11.025C43.1644 10.5601 43.7158 10.1913 44.3228 9.9397C44.9298 9.68808 45.5804 9.55857 46.2375 9.55857C46.8946 9.55857 47.5452 9.68808 48.1522 9.9397C48.7592 10.1913 49.3106 10.5601 49.775 11.025C50.2399 11.4894 50.6087 12.0408 50.8603 12.6478C51.1119 13.2548 51.2414 13.9054 51.2414 14.5625C51.2414 15.2196 51.1119 15.8702 50.8603 16.4772C50.6087 17.0842 50.2399 17.6356 49.775 18.1L49.625 18.25C49.0487 18.8392 48.662 19.5875 48.515 20.3985C48.3679 21.2095 48.4672 22.046 48.8 22.8V23C49.1169 23.7394 49.6431 24.37 50.3138 24.8142C50.9846 25.2584 51.7705 25.4968 52.575 25.5H53C54.3261 25.5 55.5979 26.0268 56.5355 26.9645C57.4732 27.9021 58 29.1739 58 30.5C58 31.8261 57.4732 33.0979 56.5355 34.0355C55.5979 34.9732 54.3261 35.5 53 35.5H52.775C51.9705 35.5032 51.1846 35.7416 50.5138 36.1858C49.8431 36.63 49.3169 37.2606 49 38Z" stroke="#D20022" stroke-width="5" stroke-linecap="round" stroke-linejoin="round"/>
</svg>
